<svg xmlns="http://www.w3.org/2000/svg" xmlns:xlink="http://www.w3.org/1999/xlink" width="128" height="128" viewBox="0 0 128 128">
  <defs>
    <clipPath id="clip-path">
      <rect id="Rectángulo_111" data-name="Rectángulo 111" width="41.054" height="77.419" fill="none" stroke="#fff" stroke-width="2"/>
    </clipPath>
  </defs>
  <g id="Grupo_377" data-name="Grupo 377" transform="translate(-883.5 -3021)">
    <g id="Grupo_243" data-name="Grupo 243" transform="translate(883.5 3021)">
      <circle id="Elipse_14" data-name="Elipse 14" cx="64" cy="64" r="64" fill="#b66cfc"/>
    </g>
    <g id="Grupo_245" data-name="Grupo 245" transform="translate(927.442 3046.302)">
      <g id="Grupo_244" data-name="Grupo 244" clip-path="url(#clip-path)">
        <rect id="Rectángulo_110" data-name="Rectángulo 110" width="39.003" height="75.368" rx="2" transform="translate(1.026 1.026)" fill="none" stroke="#fff" stroke-linecap="round" stroke-linejoin="round" stroke-width="2"/>
        <line id="Línea_6" data-name="Línea 6" x2="36.144" transform="translate(2.174 13.553)" fill="none" stroke="#fff" stroke-linecap="round" stroke-linejoin="round" stroke-width="2"/>
        <line id="Línea_7" data-name="Línea 7" x2="36.144" transform="translate(2.174 62.84)" fill="none" stroke="#fff" stroke-linecap="round" stroke-linejoin="round" stroke-width="2"/>
        <line id="Línea_8" data-name="Línea 8" x2="8.214" transform="translate(15.317 6.981)" fill="none" stroke="#fff" stroke-linecap="round" stroke-linejoin="round" stroke-width="2"/>
        <path id="Trazado_126" data-name="Trazado 126" d="M49.263,167.924a1.769,1.769,0,1,1-1.769-1.768A1.768,1.768,0,0,1,49.263,167.924Z" transform="translate(-26.968 -97.994)" fill="none" stroke="#fff" stroke-linecap="round" stroke-linejoin="round" stroke-width="2"/>
        <path id="Trazado_127" data-name="Trazado 127" d="M62.852,81.631l6.448,4.9a.29.29,0,0,1,0,.426l-6.448,4.9" transform="translate(-37.068 -48.143)" fill="none" stroke="#fff" stroke-linecap="round" stroke-linejoin="round" stroke-width="2"/>
        <path id="Trazado_128" data-name="Trazado 128" d="M26.09,81.025l-6.661,4.608a.29.29,0,0,0-.019.426l6.222,5.186" transform="translate(-11.397 -47.786)" fill="none" stroke="#fff" stroke-linecap="round" stroke-linejoin="round" stroke-width="2"/>
        <line id="Línea_9" data-name="Línea 9" x1="5.172" y2="13.573" transform="translate(17.606 31.41)" fill="none" stroke="#fff" stroke-linecap="round" stroke-linejoin="round" stroke-width="2"/>
      </g>
    </g>
  </g>
</svg>
