<svg xmlns="http://www.w3.org/2000/svg" xmlns:xlink="http://www.w3.org/1999/xlink" width="128" height="129" viewBox="0 0 128 129">
  <defs>
    <clipPath id="clip-path">
      <rect id="Rectángulo_119" data-name="Rectángulo 119" width="80.055" height="69.465" fill="none" stroke="#fff" stroke-width="2"/>
    </clipPath>
  </defs>
  <g id="Grupo_379" data-name="Grupo 379" transform="translate(-305 -3363)">
    <g id="Grupo_250" data-name="Grupo 250" transform="translate(304.622 3363)">
      <ellipse id="Elipse_14" data-name="Elipse 14" cx="64" cy="64.5" rx="64" ry="64.5" transform="translate(0.378)" fill="#f4924e"/>
    </g>
    <g id="Grupo_255" data-name="Grupo 255" transform="translate(326.89 3390.32)">
      <g id="Grupo_254" data-name="Grupo 254" clip-path="url(#clip-path)">
        <path id="Trazado_130" data-name="Trazado 130" d="M66.239,29.155c0-6.3-5.1-11.873-11.4-11.873a11.358,11.358,0,0,0-3.534.566,18.773,18.773,0,0,0-36.214-2.671c-.046,0-.091-.007-.137-.007A12.767,12.767,0,0,0,2.5,27.985c0,6.575,5.1,11.349,11.555,13.044" transform="translate(-1.442 -1.442)" fill="none" stroke="#fff" stroke-linecap="round" stroke-linejoin="round" stroke-width="2"/>
        <rect id="Rectángulo_117" data-name="Rectángulo 117" width="64.42" height="20.343" transform="translate(14.576 48.064)" fill="none" stroke="#fff" stroke-linecap="round" stroke-linejoin="round" stroke-width="2"/>
        <circle id="Elipse_17" data-name="Elipse 17" cx="3.302" cy="3.302" r="3.302" transform="translate(23.34 54.721)" fill="none" stroke="#fff" stroke-linecap="round" stroke-linejoin="round" stroke-width="2"/>
        <circle id="Elipse_18" data-name="Elipse 18" cx="3.302" cy="3.302" r="3.302" transform="translate(37.246 54.721)" fill="none" stroke="#fff" stroke-linecap="round" stroke-linejoin="round" stroke-width="2"/>
        <rect id="Rectángulo_118" data-name="Rectángulo 118" width="64.42" height="20.343" transform="translate(14.576 27.72)" fill="none" stroke="#fff" stroke-linecap="round" stroke-linejoin="round" stroke-width="2"/>
        <circle id="Elipse_19" data-name="Elipse 19" cx="3.302" cy="3.302" r="3.302" transform="translate(23.34 34.854)" fill="none" stroke="#fff" stroke-linecap="round" stroke-linejoin="round" stroke-width="2"/>
        <circle id="Elipse_20" data-name="Elipse 20" cx="3.302" cy="3.302" r="3.302" transform="translate(37.246 34.854)" fill="none" stroke="#fff" stroke-linecap="round" stroke-linejoin="round" stroke-width="2"/>
      </g>
    </g>
  </g>
</svg>
