<svg xmlns="http://www.w3.org/2000/svg" width="56.319" height="56.319" viewBox="0 0 56.319 56.319">
  <g id="Grupo_325" data-name="Grupo 325" transform="translate(0 0)">
    <path id="Trazado_152" data-name="Trazado 152" d="M28.16,0A28.16,28.16,0,1,1,0,28.16,28.16,28.16,0,0,1,28.16,0Z" transform="translate(0 0)" fill="#d288c4"/>
    <g id="Grupo_322" data-name="Grupo 322" transform="translate(13.74 12.716)">
      <path id="Trazado_151" data-name="Trazado 151" d="M18.652,8A8.652,8.652,0,0,1,27.3,16.652V26.745H21.536V16.652a2.884,2.884,0,1,0-5.768,0V26.745H10V16.652A8.652,8.652,0,0,1,18.652,8Z" transform="translate(1.536 0.652)" fill="none" stroke="#fff" stroke-linecap="round" stroke-linejoin="round" stroke-width="2"/>
      <rect id="Rectángulo_148" data-name="Rectángulo 148" width="5.6" height="17.308" transform="translate(0 10.181)" fill="none" stroke="#fff" stroke-linecap="round" stroke-linejoin="round" stroke-width="2"/>
      <circle id="Elipse_29" data-name="Elipse 29" cx="2.8" cy="2.8" r="2.8" transform="translate(0 0)" fill="none" stroke="#fff" stroke-linecap="round" stroke-linejoin="round" stroke-width="2"/>
    </g>
  </g>
</svg>
