<svg xmlns="http://www.w3.org/2000/svg" width="32.93" height="32.943" viewBox="0 0 32.93 32.943">
  <g id="Grupo_16" data-name="Grupo 16" transform="translate(1 1)">
    <circle id="Elipse_7" data-name="Elipse 7" cx="0.774" cy="0.774" r="0.774" transform="translate(17.019 6.189)" fill="#fff" stroke="#fff" stroke-linecap="round" stroke-linejoin="round" stroke-width="2"/>
    <circle id="Elipse_8" data-name="Elipse 8" cx="0.774" cy="0.774" r="0.774" transform="translate(23.207 12.377)" fill="#fff" stroke="#fff" stroke-linecap="round" stroke-linejoin="round" stroke-width="2"/>
    <circle id="Elipse_9" data-name="Elipse 9" cx="0.774" cy="0.774" r="0.774" transform="translate(9.283 7.736)" fill="#fff" stroke="#fff" stroke-linecap="round" stroke-linejoin="round" stroke-width="2"/>
    <circle id="Elipse_10" data-name="Elipse 10" cx="0.774" cy="0.774" r="0.774" transform="translate(6.189 15.471)" fill="#fff" stroke="#fff" stroke-linecap="round" stroke-linejoin="round" stroke-width="2"/>
    <path id="Trazado_24" data-name="Trazado 24" d="M17.471,2a15.471,15.471,0,1,0,0,30.943,2.556,2.556,0,0,0,2.55-2.612,2.649,2.649,0,0,0-.676-1.741,2.325,2.325,0,0,1-.678-1.741,2.537,2.537,0,0,1,2.581-2.581h3.088a8.627,8.627,0,0,0,8.594-8.593C32.889,8.207,25.92,2,17.471,2Z" transform="translate(-2 -2)" fill="none" stroke="#fff" stroke-linecap="round" stroke-linejoin="round" stroke-width="2"/>
  </g>
</svg>
